# xmcd CD database file
#
# Track frame offsets:
#	150
#	15745
#	30159
#	44459
#	61260
#	72286
#	82096
#	99205
#	109441
#	117738
#	131353
#	147289
#	162140
#	176411
#	188251
#	197859
#	213385
#	228541
#	241534
#
# Disc length: 3365 seconds
#
# Revision: 1
# Processed by: cddbd v1.5.2PL0 Copyright (c) Steve Scherf et al.
# Submitted via: CDex 1.51
#
DISCID=fc0d2313
DTITLE=Billie Holiday - [CD 02-10] - Strange Fruit
DYEAR=1900
DGENRE=Jazz
TTITLE0=Body And Soul  [1945]
TTITLE1=Strange Fruit  [1945]
TTITLE2=The Man I Love  [1946]
TTITLE3=Billie's Blues  (i.e. I Love My Man)  [1946]
TTITLE4=Gee Baby, Ain't I Good To You ¿  [1946]
TTITLE5=All Of Me  [1946]
TTITLE6=The Blues Are Brewin'  [1946]
TTITLE7=Do You Know What It Means To Miss New Orleans ¿ (Charlie Beal)  [1946]
TTITLE8=Do You Know What It Means To Miss New Orleans ¿ ( L. Armstrong)  [1946]
TTITLE9=He's Funny That Way  [1946]
TTITLE10=Trav'lin' Light  [1946]
TTITLE11=Solitude  [1947]
TTITLE12=My Man  (Mon Homme)  [1948)
TTITLE13=My Man  [1948)
TTITLE14=Miss Brown To You  [1948)
TTITLE15=Ain't Nobody's Business If I Do  [1949)
TTITLE16=Baby Get Lost  [1949)
TTITLE17=Keeps On Rainin' ¿  [1949)
TTITLE18=Them There Eyes  [1949)
EXTD=
EXTT0=
EXTT1=
EXTT2=
EXTT3=
EXTT4=
EXTT5=
EXTT6=
EXTT7=
EXTT8=
EXTT9=
EXTT10=
EXTT11=
EXTT12=
EXTT13=
EXTT14=
EXTT15=
EXTT16=
EXTT17=
EXTT18=
PLAYORDER=
